<?xml version="1.0"?>
<svg xmlns="http://www.w3.org/2000/svg" xmlns:xlink="http://www.w3.org/1999/xlink" version="1.1" id="Capa_1" x="0px" y="0px" viewBox="0 0 512 512" style="enable-background:new 0 0 512 512;" xml:space="preserve" width="512px" height="512px" class=""><g><g>
	<g>
		<path d="M291.07,249.06c-1.86-1.87-4.44-2.93-7.07-2.93s-5.21,1.06-7.07,2.93c-1.86,1.86-2.93,4.44-2.93,7.07s1.07,5.21,2.93,7.07    c1.86,1.86,4.44,2.93,7.07,2.93s5.21-1.07,7.07-2.93s2.93-4.44,2.93-7.07C294,253.49,292.93,250.92,291.07,249.06z" data-original="#000000" class="active-path" data-old_color="#000000" fill="#596E79"/>
	</g>
</g><g>
	<g>
		<path d="M482.07,279.93c-1.86-1.86-4.44-2.93-7.07-2.93s-5.21,1.069-7.07,2.93c-1.86,1.86-2.93,4.44-2.93,7.07    s1.07,5.21,2.93,7.069c1.86,1.86,4.44,2.931,7.07,2.931s5.21-1.07,7.07-2.931c1.86-1.859,2.93-4.439,2.93-7.069    S483.93,281.79,482.07,279.93z" data-original="#000000" class="active-path" data-old_color="#000000" fill="#596E79"/>
	</g>
</g><g>
	<g>
		<path d="M475,252.333c5.523,0,10-4.478,10-10V88c0-2.763-1.121-5.265-2.934-7.075L404.055,2.929    c-2.388-2.389-5.779-3.355-9.01-2.715C394.381,0.075,393.693,0,392.988,0H77C49.43,0,27,22.43,27,50v412c0,27.57,22.43,50,50,50    h358c27.57,0,50-22.43,50-50V335.667c0-5.522-4.477-10-10-10s-10,4.478-10,10V462c0,16.542-13.458,30-30,30H77    c-16.542,0-30-13.458-30-30V50c0-16.542,13.458-30,30-30h309.985v28c0,11.711,4.058,22.486,10.827,31.017    C391.216,75.806,383.816,74,376,74c-27.57,0-50,22.43-50,50c0,24.146,17.205,44.348,40,48.994v50.98h-14V216    c0-5.522-4.477-10-10-10h-76v-33.006c22.795-4.646,40-24.847,40-48.994c0-27.57-22.43-50-50-50s-50,22.43-50,50    c0,24.146,17.205,44.348,40,48.994V206h-76c-5.523,0-10,4.478-10,10v7.974h-14v-50.98c22.795-4.646,40-24.847,40-48.994    c0-27.57-22.43-50-50-50s-50,22.43-50,50c0,24.146,17.205,44.348,40,48.994v60.98c0,5.522,4.477,10,10,10h24V266h-24    c-5.523,0-10,4.478-10,10v66H96c-5.523,0-10,4.478-10,10v80c0,5.522,4.477,10,10,10h80c5.523,0,10-4.478,10-10v-80    c0-5.522-4.477-10-10-10h-30v-56h14v10c0,5.522,4.477,10,10,10h76v36h-30c-5.523,0-10,4.478-10,10v80c0,5.522,4.477,10,10,10h80    c5.523,0,10-4.478,10-10v-80c0-5.522-4.477-10-10-10h-30v-36h76c5.523,0,10-4.478,10-10v-10h14v56h-30c-5.523,0-10,4.478-10,10v80    c0,5.522,4.477,10,10,10h80c5.523,0,10-4.478,10-10v-80c0-5.522-4.477-10-10-10h-30v-66c0-5.522-4.477-10-10-10h-24v-22.026h24    c5.523,0,10-4.478,10-10v-60.98c22.795-4.646,40-24.847,40-48.994c0-11.711-4.058-22.486-10.827-31.017    C421.769,96.194,429.169,98,436.985,98H465v144.333C465,247.855,469.477,252.333,475,252.333z M106,124c0-16.542,13.458-30,30-30    s30,13.458,30,30s-13.458,30-30,30S106,140.542,106,124z M166,362v60h-60v-60H166z M226,124c0-16.542,13.458-30,30-30    s30,13.458,30,30s-13.458,30-30,30S226,140.542,226,124z M286,362v60h-60v-60H286z M332,286H180v-19.873h53.855    c5.523,0,10-4.478,10-10c0-5.522-4.477-10-10-10H180V226h152V286z M406,362v60h-60v-60H406z M376,154c-16.542,0-30-13.458-30-30    s13.458-30,30-30s30,13.458,30,30S392.542,154,376,154z M436.985,78c-16.542,0-30-13.458-30-30V34.139L450.854,78H436.985z" data-original="#000000" class="active-path" data-old_color="#000000" fill="#596E79"/>
	</g>
</g></g> </svg>
