<?xml version="1.0"?>
<svg xmlns="http://www.w3.org/2000/svg" viewBox="0 0 64 64" width="512px" height="512px" class=""><g><g id="Arts-Study-Computer_presentation-School-Education" data-name="Arts-Study-Computer presentation-School-Education"><path d="M34,14a4,4,0,1,0,4,4A4,4,0,0,0,34,14Zm0,6a2,2,0,1,1,2-2A2,2,0,0,1,34,20Z" data-original="#000000" class="active-path" data-old_color="#000000" fill="#596E79"/><path d="M43,19a3,3,0,1,0,3,3A3,3,0,0,0,43,19Zm0,4a1,1,0,1,1,1-1A1,1,0,0,1,43,23Z" data-original="#000000" class="active-path" data-old_color="#000000" fill="#596E79"/><path d="M43,30a3,3,0,1,0,3-3A3,3,0,0,0,43,30Zm3-1a1,1,0,1,1-1,1A1,1,0,0,1,46,29Z" data-original="#000000" class="active-path" data-old_color="#000000" fill="#596E79"/><path d="M59,2H5A3.009,3.009,0,0,0,2,5V53a3.009,3.009,0,0,0,3,3H24.13l-2.96,4.45a.963.963,0,0,0-.05,1.02A.984.984,0,0,0,22,62H42a.984.984,0,0,0,.88-.53.963.963,0,0,0-.05-1.02L39.87,56H59a3.009,3.009,0,0,0,3-3V5A3.009,3.009,0,0,0,59,2ZM40.13,60H23.87l2.67-4H37.46ZM60,53a1,1,0,0,1-1,1H5a1,1,0,0,1-1-1V50H60Zm0-5H4V5A1,1,0,0,1,5,4H59a1,1,0,0,1,1,1Z" data-original="#000000" class="active-path" data-old_color="#000000" fill="#596E79"/><path d="M36.33,37.5l-11-19.05a1,1,0,0,0-.61-.47,1.013,1.013,0,0,0-.76.1l-3.46,2a1.01,1.01,0,0,0-.37,1.37l11,19.05a1.056,1.056,0,0,0,.61.47A1.153,1.153,0,0,0,32,41a1.094,1.094,0,0,0,.5-.13l3.46-2A1,1,0,0,0,36.33,37.5Zm-3.96,1.13-10-17.32,1.73-1,10,17.32Z" data-original="#000000" class="active-path" data-old_color="#000000" fill="#596E79"/><path d="M23.2,12.75l-.95-1.64a5.017,5.017,0,0,0-1.9-1.87L16.22,6.95a1,1,0,0,0-.99.01,1.014,1.014,0,0,0-.5.85l-.08,4.72a5.045,5.045,0,0,0,.67,2.58l.95,1.64a3.006,3.006,0,0,0,4.1,1.1l1.73-1a3,3,0,0,0,1.1-4.1Zm-1.64,1.76a.974.974,0,0,1-.46.61l-1.73,1A1.01,1.01,0,0,1,18,15.75l-.95-1.64a2.989,2.989,0,0,1-.4-1.55l.05-3.05,2.68,1.48a2.99,2.99,0,0,1,1.14,1.12l.94,1.64A.963.963,0,0,1,21.56,14.51Z" data-original="#000000" class="active-path" data-old_color="#000000" fill="#596E79"/><path d="M28.333,11.968a17,17,0,0,1,18.406,27.28A6.011,6.011,0,0,0,41,35a1,1,0,0,0,0,2,4,4,0,0,1,4,4,1.862,1.862,0,0,1-.02.284,1,1,0,0,0,1.653.894,19,19,0,0,0-18.966-32.1,1,1,0,0,0,.666,1.887Z" data-original="#000000" class="active-path" data-old_color="#000000" fill="#596E79"/><path d="M26.259,38.034a12,12,0,0,1-8.486-14.7,1,1,0,1,0-1.931-.518,14.016,14.016,0,0,0,9.9,17.147A1.015,1.015,0,0,0,26,40a1,1,0,0,0,.258-1.966Z" data-original="#000000" class="active-path" data-old_color="#000000" fill="#596E79"/></g></g> </svg>
